<svg width="720" height="520" viewBox="0 0 720 520" fill="none" xmlns="http://www.w3.org/2000/svg">
  <rect x="64" y="58" width="592" height="376" rx="32" fill="#F8FBFF" fill-opacity=".95"/>
  <rect x="96" y="90" width="528" height="72" rx="18" fill="#20242C"/>
  <circle cx="132" cy="126" r="11" fill="#E96954"/>
  <circle cx="168" cy="126" r="11" fill="#F1B44B"/>
  <circle cx="204" cy="126" r="11" fill="#2EBE7E"/>
  <rect x="108" y="198" width="228" height="172" rx="24" fill="#DCE8F8"/>
  <rect x="384" y="198" width="228" height="172" rx="24" fill="#DFF3EC"/>
  <circle cx="190" cy="263" r="44" fill="#315F9B"/>
  <path d="M169 268l16 16 36-43" stroke="white" stroke-width="11" stroke-linecap="round" stroke-linejoin="round"/>
  <rect x="246" y="238" width="62" height="14" rx="7" fill="#566172"/>
  <rect x="246" y="267" width="48" height="12" rx="6" fill="#8B95A5"/>
  <rect x="135" y="322" width="148" height="18" rx="9" fill="#13715F"/>
  <circle cx="468" cy="265" r="46" fill="#13715F"/>
  <path d="M444 266h48M468 242v48" stroke="white" stroke-width="12" stroke-linecap="round"/>
  <rect x="526" y="238" width="52" height="14" rx="7" fill="#566172"/>
  <rect x="526" y="267" width="36" height="12" rx="6" fill="#8B95A5"/>
  <rect x="414" y="322" width="148" height="18" rx="9" fill="#315F9B"/>
  <path d="M142 424h420" stroke="#B9C2CF" stroke-width="18" stroke-linecap="round"/>
  <path d="M201 424h164" stroke="#13715F" stroke-width="18" stroke-linecap="round"/>
  <circle cx="562" cy="119" r="92" fill="#F6D7A6"/>
  <path d="M506 170c29 37 88 44 126 14v84H506v-98Z" fill="#C65B47"/>
  <path d="M515 91c33-47 112-48 143 6 11 20 13 45 5 66-30-16-64-18-98-5-31 12-58-16-50-67Z" fill="#20242C"/>
  <circle cx="562" cy="128" r="49" fill="#D6A56B"/>
  <path d="M543 133c17 15 42 16 61 3-3 27-17 45-42 45s-38-19-19-48Z" fill="#432B25" fill-opacity=".22"/>
  <rect x="482" y="282" width="168" height="105" rx="20" fill="#FFFFFF"/>
  <rect x="510" y="311" width="100" height="15" rx="7.5" fill="#566172"/>
  <rect x="510" y="340" width="72" height="12" rx="6" fill="#9AA4B2"/>
  <rect x="510" y="362" width="96" height="12" rx="6" fill="#9AA4B2"/>
  <circle cx="641" cy="320" r="18" fill="#F1B44B"/>
</svg>
